# xmcd CD database file
#
# Track frame offsets:
#	150
#	14020
#	27452
#	40677
#	54682
#	68092
#	82070
#	96045
#	109472
#	122762
#	134907
#	148552
#	161587
#	174332
#	188492
#	201980
#	214730
#	229190
#	243650
#	258122
#	272972
#
# Disc length: 3823 seconds
#
# Revision: 1
# Processed by: cddbd v1.5.2PL0 Copyright (c) Steve Scherf et al.
# Submitted via: jetAudio 7
#
DISCID=3d0eed15
DTITLE=Leroy Carr - Complete Recorded Works (Volume 6)
DYEAR=1992
DGENRE=Blues
TTITLE0=Bread Baker
TTITLE1=Tight Time Blues
TTITLE2=Longing For My Sugar
TTITLE3=Black Wagon Blues
TTITLE4=Shinin' Pistol
TTITLE5=Arlena (Take 1)
TTITLE6=Arlena (Take 2)
TTITLE7=It's Too Short (Take 1)
TTITLE8=It's Too Short (Take 2)
TTITLE9=My Good For Nothin' Gal
TTITLE10=Suicide Blues (Take 1)
TTITLE11=Bozetta Blues (Take 1)
TTITLE12=Church House Blues (Take 2)
TTITLE13=Rocks In My Bed
TTITLE14=When The Sun Goes Down
TTITLE15=Bad Luck All The Time
TTITLE16=Big Four Blues
TTITLE17=Just A Rag
TTITLE18=Ain't It A Shame
TTITLE19=Going Back Home
TTITLE20=Six Cold Feet In The Ground
EXTD=
EXTT0=
EXTT1=
EXTT2=
EXTT3=
EXTT4=
EXTT5=
EXTT6=
EXTT7=
EXTT8=
EXTT9=
EXTT10=
EXTT11=
EXTT12=
EXTT13=
EXTT14=
EXTT15=
EXTT16=
EXTT17=
EXTT18=
EXTT19=
EXTT20=
PLAYORDER=
